{
 "cells": [
  {
   "cell_type": "code",
   "execution_count": 1,
   "metadata": {},
   "outputs": [],
   "source": [
    "import numpy as np\n",
    "import matplotlib.pyplot as plt\n",
    "import h5py\n",
    "import multiprocessing\n",
    "from multiprocessing import Pool\n",
    "import os"
   ]
  },
  {
   "cell_type": "code",
   "execution_count": 2,
   "metadata": {},
   "outputs": [
    {
     "ename": "NameError",
     "evalue": "name 'ds' is not defined",
     "output_type": "error",
     "traceback": [
      "\u001b[0;31m---------------------------------------------------------------------------\u001b[0m",
      "\u001b[0;31mNameError\u001b[0m                                 Traceback (most recent call last)",
      "Cell \u001b[0;32mIn [2], line 1\u001b[0m\n\u001b[0;32m----> 1\u001b[0m \u001b[38;5;28mprint\u001b[39m(\u001b[43mds\u001b[49m\u001b[38;5;241m.\u001b[39mkeys())\n",
      "\u001b[0;31mNameError\u001b[0m: name 'ds' is not defined"
     ]
    }
   ],
   "source": [
    "print(ds.keys())"
   ]
  },
  {
   "cell_type": "code",
   "execution_count": 3,
   "metadata": {},
   "outputs": [],
   "source": [
    "# file = \"0515_600_100_sum_tracers_output.dat\"\n",
    "file = \"RH0_3_0_0.dat\" \n",
    "\n",
    "ds = h5py.File(file, \"r\")\n",
    "\n",
    "# u      = np.asarray(ds[\"grid_u_c_xyzt\"])\n",
    "# v      = np.asarray(ds[\"grid_v_c_xyzt\"])\n",
    "# spe_vor_final_xyz = np.asarray(ds[\"spe_vor_c_xyzt\"])\n",
    "# grid_t_c_xyzt = np.asarray(ds[\"grid_t_c_xyzt\"])\n",
    "# grid_t_eq_xyzt = np.asarray(ds[\"grid_t_eq_xyzt\"])\n",
    "# grid_p_full_xyzt   = np.asarray(ds[\"grid_p_full_xyzt\"])\n",
    "qv      = np.asarray(ds[\"grid_tracers_c_xyz1t\"])\n",
    "# grid_t_c_xyzt = np.asarray(ds[\"grid_t_c_xyzt\"])\n",
    "\n",
    "\n",
    "# k = 0.5*(v**2+ u**2)\n",
    "# print(k.shape)\n",
    "x = np.linspace(-180,180,128)\n",
    "y = np.linspace(-55, 55,64)\n",
    "xx, yy = np.meshgrid(x, y)\n",
    "\n",
    "def plot_KE_sfc(t):\n",
    "    plt.contourf(xx, yy, k[t, 19], levels=np.linspace(0, 800, 11), extend='max')\n",
    "    plt.colorbar()\n",
    "    plt.xlabel(\"Longitude\")\n",
    "    plt.ylabel(\"Latitude\")\n",
    "    plt.title(f\"Kinetic Energy at surface at Day {t}\")\n",
    "    plt.savefig(f\"0516/KE_sfc/{t}.png\", dpi=300.)\n",
    "    plt.close()\n",
    "\n",
    "def plot_KE_top(t):\n",
    "    plt.contourf(xx, yy, k[t, 0], levels=np.linspace(0, 800, 11), extend='max')\n",
    "    plt.colorbar()\n",
    "    plt.xlabel(\"Longitude\")\n",
    "    plt.ylabel(\"Latitude\")\n",
    "    plt.title(f\"Kinetic Energy at top at Day {t}\")\n",
    "    plt.savefig(f\"0516/KE_top/{t}.png\", dpi=300.)\n",
    "    plt.close()\n",
    "\n",
    "\n",
    "def plot_qv_sfc(t):\n",
    "    plt.figure()\n",
    "    plt.contourf(xx, yy, qv[t, 19], levels=np.linspace(0, 5, 11), extend='max')\n",
    "    plt.colorbar()\n",
    "    plt.xlabel(\"Longitude\")\n",
    "    plt.ylabel(\"Latitude\")\n",
    "    plt.title(f\"qv at sfc Day {t}\")\n",
    "    plt.savefig(f\"0516_test/qv_sfc/{t}.png\", dpi=300.)\n",
    "    plt.close()\n",
    "\n",
    "def plot_t_sfc(t):\n",
    "    plt.figure()\n",
    "    plt.contourf(xx, yy, grid_t_c_xyzt[t, 19], levels=np.linspace(250, 320, 11), extend='max')\n",
    "    plt.colorbar()\n",
    "    plt.xlabel(\"Longitude\")\n",
    "    plt.ylabel(\"Latitude\")\n",
    "    plt.title(f\"T at sfc Day {t}\")\n",
    "    plt.savefig(f\"0516/T_sfc/{t}.png\", dpi=300.)\n",
    "    plt.close()\n",
    "\n",
    "def plot_all(t):\n",
    "    fig, ax = plt.subplots(2, 2, figsize=(12, 12))\n",
    "    # fig.suptitle(f\"Day {t}\")\n",
    "    # cs0 = ax[0, 0].contourf(xx, yy, k[t, 19], levels=np.linspace(0, 800, 11), extend='max')\n",
    "    # fig.colorbar(cs0, orientation='horizontal')\n",
    "    \n",
    "    # ax[0, 0].set_title(f\"Kinetic Energy at surface\")\n",
    "\n",
    "    # cs1 = ax[0, 1].contourf(xx, yy, k[t, 0], levels=np.linspace(0, 800, 11), extend='max')\n",
    "    # fig.colorbar(cs1, orientation='horizontal')\n",
    "    # ax[0, 1].set_title(f\"Kinetic Energy at top\")\n",
    "\n",
    "    cs2 = ax[1, 0].contourf(xx, yy, qv[t, 19], levels=np.linspace(0, 20, 21), extend='max')\n",
    "    fig.colorbar(cs2, orientation='horizontal')\n",
    "    ax[1, 0].set_title(f\"qv at sfc\")\n",
    "\n",
    "    cs3 = ax[1, 1].contourf(xx, yy, grid_t_c_xyzt[t, 19], levels=np.linspace(250, 320, 11), extend='both')\n",
    "    fig.colorbar(cs3, orientation='horizontal')\n",
    "    ax[1, 1].set_title(f\"T at sfc\")\n",
    "\n",
    "    for i in range(2):\n",
    "        for j in range(2):\n",
    "            ax[i, j].set_xlabel(\"Longitude\")\n",
    "            ax[i, j].set_ylabel(\"Latitude\")\n",
    "\n",
    "    # plt.savefig(f\"{savepath}/{t}.png\", dpi=300.)\n",
    "    plt.close()"
   ]
  },
  {
   "cell_type": "code",
   "execution_count": 6,
   "metadata": {},
   "outputs": [],
   "source": [
    "to = 3\n",
    "savepath = \"graphs/case1/\"\n",
    "\n",
    "\n",
    "try:\n",
    "    os.makedirs(f\"{savepath}\")\n",
    "except FileExistsError:\n",
    "    pass\n",
    "\n",
    "def plot_all(t):\n",
    "    fig, ax = plt.subplots(2, 2, figsize=(12, 12))\n",
    "    fig.suptitle(f\"Day {t}\")\n",
    "    cs0 = ax[0, 0].contourf(xx, yy, k[t, 19], levels=np.linspace(0, 800, 11), extend='max')\n",
    "    fig.colorbar(cs0, orientation='horizontal')\n",
    "    \n",
    "    ax[0, 0].set_title(f\"Kinetic Energy at surface\")\n",
    "\n",
    "    cs1 = ax[0, 1].contourf(xx, yy, k[t, 0], levels=np.linspace(0, 800, 11), extend='max')\n",
    "    fig.colorbar(cs1, orientation='horizontal')\n",
    "    ax[0, 1].set_title(f\"Kinetic Energy at top\")\n",
    "\n",
    "    cs2 = ax[1, 0].contourf(xx, yy, qv[t, 19], levels=np.linspace(0, 20, 21), extend='max')\n",
    "    fig.colorbar(cs2, orientation='horizontal')\n",
    "    ax[1, 0].set_title(f\"qv at sfc\")\n",
    "\n",
    "    cs3 = ax[1, 1].contourf(xx, yy, grid_t_c_xyzt[t, 19], levels=np.linspace(250, 320, 11), extend='both')\n",
    "    fig.colorbar(cs3, orientation='horizontal')\n",
    "    ax[1, 1].set_title(f\"T at sfc\")\n",
    "\n",
    "    for i in range(2):\n",
    "        for j in range(2):\n",
    "            ax[i, j].set_xlabel(\"Longitude\")\n",
    "            ax[i, j].set_ylabel(\"Latitude\")\n",
    "\n",
    "    # plt.savefig(f\"{savepath}/{t}.png\", dpi=300.)\n",
    "    # plt.close()\n",
    "plt.show()"
   ]
  },
  {
   "cell_type": "code",
   "execution_count": null,
   "metadata": {},
   "outputs": [],
   "source": [
    "leap = 1\n",
    "nProc = int(multiprocessing.cpu_count() // 2)\n",
    "with Pool(nProc) as p:\n",
    "    results = [p.apply_async(plot_all, (t, )) for t in range(0, to, leap)]\n",
    "    final = [result.get() for result in results]\n",
    "!cd $savepathpath && ffmpeg -r 20 -i %d.png -pix_fmt yuv420p 0.mov -y"
   ]
  },
  {
   "cell_type": "code",
   "execution_count": 4,
   "metadata": {},
   "outputs": [
    {
     "name": "stdout",
     "output_type": "stream",
     "text": [
      "/home/Aaron/Dycore_version_7/IdealizedSpetralGCM.jl/exp/HSt42\n"
     ]
    }
   ],
   "source": [
    "path = \"0517\"\n",
    "!pwd\n",
    "!cd $path "
   ]
  },
  {
   "cell_type": "code",
   "execution_count": 14,
   "metadata": {},
   "outputs": [],
   "source": [
    "leap = 1\n",
    "to = 600\n",
    "nProc = int(multiprocessing.cpu_count() // 2)\n",
    "with Pool(nProc) as p:\n",
    "    results = [p.apply_async(plot_KE_sfc, (t, )) for t in range(0, to, leap)]\n",
    "    final = [result.get() for result in results]\n",
    "!cd \"0516/KE_sfc\" && ffmpeg -r 20 -i %d.png -pix_fmt yuv420p KE_sfc.mov -y"
   ]
  },
  {
   "cell_type": "code",
   "execution_count": null,
   "metadata": {},
   "outputs": [],
   "source": [
    "leap = 1\n",
    "to = 600\n",
    "nProc = int(multiprocessing.cpu_count() // 2)\n",
    "with Pool(nProc) as p:\n",
    "    results = [p.apply_async(plot_KE_top, (t, )) for t in range(0, to, leap)]\n",
    "    final = [result.get() for result in results]\n",
    "!cd \"0516/KE_top\" && ffmpeg -r 20 -i %d.png -pix_fmt yuv420p KE_top.mov -y"
   ]
  },
  {
   "cell_type": "code",
   "execution_count": 9,
   "metadata": {},
   "outputs": [
    {
     "name": "stdout",
     "output_type": "stream",
     "text": [
      "ffmpeg version 4.2.2 Copyright (c) 2000-2019 the FFmpeg developers\n",
      "  built with gcc 7.3.0 (crosstool-NG 1.23.0.449-a04d0)\n",
      "  configuration: --prefix=/tmp/build/80754af9/ffmpeg_1587154242452/_h_env_placehold_placehold_placehold_placehold_placehold_placehold_placehold_placehold_placehold_placehold_placehold_placehold_placehold_placehold_placehold_placehold_placehold_placehold_placehold_placehold_placeho --cc=/tmp/build/80754af9/ffmpeg_1587154242452/_build_env/bin/x86_64-conda_cos6-linux-gnu-cc --disable-doc --enable-avresample --enable-gmp --enable-hardcoded-tables --enable-libfreetype --enable-libvpx --enable-pthreads --enable-libopus --enable-postproc --enable-pic --enable-pthreads --enable-shared --enable-static --enable-version3 --enable-zlib --enable-libmp3lame --disable-nonfree --enable-gpl --enable-gnutls --disable-openssl --enable-libopenh264 --enable-libx264\n",
      "  libavutil      56. 31.100 / 56. 31.100\n",
      "  libavcodec     58. 54.100 / 58. 54.100\n",
      "  libavformat    58. 29.100 / 58. 29.100\n",
      "  libavdevice    58.  8.100 / 58.  8.100\n",
      "  libavfilter     7. 57.100 /  7. 57.100\n",
      "  libavresample   4.  0.  0 /  4.  0.  0\n",
      "  libswscale      5.  5.100 /  5.  5.100\n",
      "  libswresample   3.  5.100 /  3.  5.100\n",
      "  libpostproc    55.  5.100 / 55.  5.100\n",
      "Input #0, image2, from '%d.png':\n",
      "  Duration: 00:00:02.00, start: 0.000000, bitrate: N/A\n",
      "    Stream #0:0: Video: png, rgba(pc), 1920x1440 [SAR 11811:11811 DAR 4:3], 25 fps, 25 tbr, 25 tbn, 25 tbc\n",
      "Stream mapping:\n",
      "  Stream #0:0 -> #0:0 (png (native) -> h264 (libx264))\n",
      "Press [q] to stop, [?] for help\n",
      "\u001b[1;36m[libx264 @ 0x55b331914ec0] \u001b[0musing SAR=1/1\n",
      "\u001b[1;36m[libx264 @ 0x55b331914ec0] \u001b[0musing cpu capabilities: MMX2 SSE2Fast SSSE3 SSE4.2 AVX FMA3 BMI2 AVX2\n",
      "\u001b[1;36m[libx264 @ 0x55b331914ec0] \u001b[0mprofile High, level 5.0, 4:2:0, 8-bit\n",
      "\u001b[1;36m[libx264 @ 0x55b331914ec0] \u001b[0m264 - core 157 - H.264/MPEG-4 AVC codec - Copyleft 2003-2018 - http://www.videolan.org/x264.html - options: cabac=1 ref=3 deblock=1:0:0 analyse=0x3:0x113 me=hex subme=7 psy=1 psy_rd=1.00:0.00 mixed_ref=1 me_range=16 chroma_me=1 trellis=1 8x8dct=1 cqm=0 deadzone=21,11 fast_pskip=1 chroma_qp_offset=-2 threads=45 lookahead_threads=7 sliced_threads=0 nr=0 decimate=1 interlaced=0 bluray_compat=0 constrained_intra=0 bframes=3 b_pyramid=2 b_adapt=1 b_bias=0 direct=1 weightb=1 open_gop=0 weightp=2 keyint=250 keyint_min=20 scenecut=40 intra_refresh=0 rc_lookahead=40 rc=crf mbtree=1 crf=23.0 qcomp=0.60 qpmin=0 qpmax=69 qpstep=4 ip_ratio=1.40 aq=1:1.00\n",
      "Output #0, mov, to 'qv_sfc.mov':\n",
      "  Metadata:\n",
      "    encoder         : Lavf58.29.100\n",
      "    Stream #0:0: Video: h264 (libx264) (avc1 / 0x31637661), yuv420p, 1920x1440 [SAR 1:1 DAR 4:3], q=-1--1, 20 fps, 10240 tbn, 20 tbc\n",
      "    Metadata:\n",
      "      encoder         : Lavc58.54.100 libx264\n",
      "    Side data:\n",
      "      cpb: bitrate max/min/avg: 0/0/0 buffer size: 0 vbv_delay: -1\n",
      "frame=   50 fps=0.0 q=-1.0 Lsize=     239kB time=00:00:02.35 bitrate= 831.5kbits/s speed=3.22x    \n",
      "video:237kB audio:0kB subtitle:0kB other streams:0kB global headers:0kB muxing overhead: 0.558227%\n",
      "\u001b[1;36m[libx264 @ 0x55b331914ec0] \u001b[0mframe I:1     Avg QP:21.64  size: 48598\n",
      "\u001b[1;36m[libx264 @ 0x55b331914ec0] \u001b[0mframe P:23    Avg QP:24.91  size:  5136\n",
      "\u001b[1;36m[libx264 @ 0x55b331914ec0] \u001b[0mframe B:26    Avg QP:26.36  size:  2904\n",
      "\u001b[1;36m[libx264 @ 0x55b331914ec0] \u001b[0mconsecutive B-frames: 18.0% 32.0% 18.0% 32.0%\n",
      "\u001b[1;36m[libx264 @ 0x55b331914ec0] \u001b[0mmb I  I16..4: 24.8% 65.0% 10.2%\n",
      "\u001b[1;36m[libx264 @ 0x55b331914ec0] \u001b[0mmb P  I16..4:  0.4%  4.7%  1.5%  P16..4:  2.1%  0.9%  0.2%  0.0%  0.0%    skip:90.2%\n",
      "\u001b[1;36m[libx264 @ 0x55b331914ec0] \u001b[0mmb B  I16..4:  0.2%  0.6%  0.5%  B16..8:  3.9%  1.0%  0.1%  direct: 0.1%  skip:93.8%  L0:54.1% L1:45.6% BI: 0.3%\n",
      "\u001b[1;36m[libx264 @ 0x55b331914ec0] \u001b[0m8x8 transform intra:66.4% inter:39.4%\n",
      "\u001b[1;36m[libx264 @ 0x55b331914ec0] \u001b[0mcoded y,uvDC,uvAC intra: 14.8% 34.5% 31.3% inter: 0.5% 0.4% 0.2%\n",
      "\u001b[1;36m[libx264 @ 0x55b331914ec0] \u001b[0mi16 v,h,dc,p: 69% 22%  8%  1%\n",
      "\u001b[1;36m[libx264 @ 0x55b331914ec0] \u001b[0mi8 v,h,dc,ddl,ddr,vr,hd,vl,hu: 32%  9% 49%  2%  2%  2%  2%  2%  1%\n",
      "\u001b[1;36m[libx264 @ 0x55b331914ec0] \u001b[0mi4 v,h,dc,ddl,ddr,vr,hd,vl,hu: 33% 18% 30%  4%  3%  4%  3%  3%  2%\n",
      "\u001b[1;36m[libx264 @ 0x55b331914ec0] \u001b[0mi8c dc,h,v,p: 70% 12% 14%  5%\n",
      "\u001b[1;36m[libx264 @ 0x55b331914ec0] \u001b[0mWeighted P-Frames: Y:0.0% UV:0.0%\n",
      "\u001b[1;36m[libx264 @ 0x55b331914ec0] \u001b[0mref P L0: 65.5%  1.7% 21.6% 11.2%\n",
      "\u001b[1;36m[libx264 @ 0x55b331914ec0] \u001b[0mref B L0: 77.0% 21.5%  1.4%\n",
      "\u001b[1;36m[libx264 @ 0x55b331914ec0] \u001b[0mref B L1: 99.7%  0.3%\n",
      "\u001b[1;36m[libx264 @ 0x55b331914ec0] \u001b[0mkb/s:775.16\n"
     ]
    }
   ],
   "source": [
    "leap = 1\n",
    "to = 50\n",
    "nProc = int(multiprocessing.cpu_count() // 2)\n",
    "with Pool(nProc) as p:\n",
    "    results = [p.apply_async(plot_qv_sfc, (t, )) for t in range(0, to, leap)]\n",
    "    final = [result.get() for result in results]\n",
    "!cd \"0516_test/qv_sfc\" && ffmpeg -r 20 -i %d.png -pix_fmt yuv420p qv_sfc.mov -y"
   ]
  },
  {
   "cell_type": "code",
   "execution_count": 35,
   "metadata": {},
   "outputs": [
    {
     "name": "stdout",
     "output_type": "stream",
     "text": [
      "ffmpeg version 4.2.2 Copyright (c) 2000-2019 the FFmpeg developers\n",
      "  built with gcc 7.3.0 (crosstool-NG 1.23.0.449-a04d0)\n",
      "  configuration: --prefix=/tmp/build/80754af9/ffmpeg_1587154242452/_h_env_placehold_placehold_placehold_placehold_placehold_placehold_placehold_placehold_placehold_placehold_placehold_placehold_placehold_placehold_placehold_placehold_placehold_placehold_placehold_placehold_placeho --cc=/tmp/build/80754af9/ffmpeg_1587154242452/_build_env/bin/x86_64-conda_cos6-linux-gnu-cc --disable-doc --enable-avresample --enable-gmp --enable-hardcoded-tables --enable-libfreetype --enable-libvpx --enable-pthreads --enable-libopus --enable-postproc --enable-pic --enable-pthreads --enable-shared --enable-static --enable-version3 --enable-zlib --enable-libmp3lame --disable-nonfree --enable-gpl --enable-gnutls --disable-openssl --enable-libopenh264 --enable-libx264\n",
      "  libavutil      56. 31.100 / 56. 31.100\n",
      "  libavcodec     58. 54.100 / 58. 54.100\n",
      "  libavformat    58. 29.100 / 58. 29.100\n",
      "  libavdevice    58.  8.100 / 58.  8.100\n",
      "  libavfilter     7. 57.100 /  7. 57.100\n",
      "  libavresample   4.  0.  0 /  4.  0.  0\n",
      "  libswscale      5.  5.100 /  5.  5.100\n",
      "  libswresample   3.  5.100 /  3.  5.100\n",
      "  libpostproc    55.  5.100 / 55.  5.100\n",
      "Input #0, image2, from '%d.png':\n",
      "  Duration: 00:00:24.00, start: 0.000000, bitrate: N/A\n",
      "    Stream #0:0: Video: png, rgba(pc), 1920x1440 [SAR 11811:11811 DAR 4:3], 25 fps, 25 tbr, 25 tbn, 25 tbc\n",
      "Stream mapping:\n",
      "  Stream #0:0 -> #0:0 (png (native) -> h264 (libx264))\n",
      "Press [q] to stop, [?] for help\n",
      "\u001b[1;36m[libx264 @ 0x55bc50926580] \u001b[0musing SAR=1/1\n",
      "\u001b[1;36m[libx264 @ 0x55bc50926580] \u001b[0musing cpu capabilities: MMX2 SSE2Fast SSSE3 SSE4.2 AVX FMA3 BMI2 AVX2\n",
      "\u001b[1;36m[libx264 @ 0x55bc50926580] \u001b[0mprofile High, level 5.0, 4:2:0, 8-bit\n",
      "\u001b[1;36m[libx264 @ 0x55bc50926580] \u001b[0m264 - core 157 - H.264/MPEG-4 AVC codec - Copyleft 2003-2018 - http://www.videolan.org/x264.html - options: cabac=1 ref=3 deblock=1:0:0 analyse=0x3:0x113 me=hex subme=7 psy=1 psy_rd=1.00:0.00 mixed_ref=1 me_range=16 chroma_me=1 trellis=1 8x8dct=1 cqm=0 deadzone=21,11 fast_pskip=1 chroma_qp_offset=-2 threads=45 lookahead_threads=7 sliced_threads=0 nr=0 decimate=1 interlaced=0 bluray_compat=0 constrained_intra=0 bframes=3 b_pyramid=2 b_adapt=1 b_bias=0 direct=1 weightb=1 open_gop=0 weightp=2 keyint=250 keyint_min=20 scenecut=40 intra_refresh=0 rc_lookahead=40 rc=crf mbtree=1 crf=23.0 qcomp=0.60 qpmin=0 qpmax=69 qpstep=4 ip_ratio=1.40 aq=1:1.00\n",
      "Output #0, mov, to 'qv_top.mov':\n",
      "  Metadata:\n",
      "    encoder         : Lavf58.29.100\n",
      "    Stream #0:0: Video: h264 (libx264) (avc1 / 0x31637661), yuv420p, 1920x1440 [SAR 1:1 DAR 4:3], q=-1--1, 20 fps, 10240 tbn, 20 tbc\n",
      "    Metadata:\n",
      "      encoder         : Lavc58.54.100 libx264\n",
      "    Side data:\n",
      "      cpb: bitrate max/min/avg: 0/0/0 buffer size: 0 vbv_delay: -1\n",
      "frame=  600 fps= 61 q=-1.0 Lsize=     230kB time=00:00:29.85 bitrate=  63.1kbits/s speed=3.01x     \n",
      "video:222kB audio:0kB subtitle:0kB other streams:0kB global headers:0kB muxing overhead: 3.470277%\n",
      "\u001b[1;36m[libx264 @ 0x55bc50926580] \u001b[0mframe I:3     Avg QP:10.26  size: 21157\n",
      "\u001b[1;36m[libx264 @ 0x55bc50926580] \u001b[0mframe P:155   Avg QP:23.94  size:   382\n",
      "\u001b[1;36m[libx264 @ 0x55bc50926580] \u001b[0mframe B:442   Avg QP:30.26  size:   235\n",
      "\u001b[1;36m[libx264 @ 0x55bc50926580] \u001b[0mconsecutive B-frames:  0.7%  0.7%  8.0% 90.7%\n",
      "\u001b[1;36m[libx264 @ 0x55bc50926580] \u001b[0mmb I  I16..4: 69.5% 26.4%  4.1%\n",
      "\u001b[1;36m[libx264 @ 0x55bc50926580] \u001b[0mmb P  I16..4:  0.0%  0.0%  0.0%  P16..4:  0.1%  0.0%  0.0%  0.0%  0.0%    skip:99.8%\n",
      "\u001b[1;36m[libx264 @ 0x55bc50926580] \u001b[0mmb B  I16..4:  0.0%  0.0%  0.0%  B16..8:  0.1%  0.0%  0.0%  direct: 0.0%  skip:99.8%  L0:54.8% L1:43.4% BI: 1.8%\n",
      "\u001b[1;36m[libx264 @ 0x55bc50926580] \u001b[0m8x8 transform intra:28.0% inter:11.5%\n",
      "\u001b[1;36m[libx264 @ 0x55bc50926580] \u001b[0mcoded y,uvDC,uvAC intra: 3.8% 0.5% 0.4% inter: 0.0% 0.0% 0.0%\n",
      "\u001b[1;36m[libx264 @ 0x55bc50926580] \u001b[0mi16 v,h,dc,p: 94%  4%  2%  0%\n",
      "\u001b[1;36m[libx264 @ 0x55bc50926580] \u001b[0mi8 v,h,dc,ddl,ddr,vr,hd,vl,hu: 32%  2% 66%  0%  0%  0%  0%  0%  0%\n",
      "\u001b[1;36m[libx264 @ 0x55bc50926580] \u001b[0mi4 v,h,dc,ddl,ddr,vr,hd,vl,hu: 39% 22% 18%  3%  3%  4%  2%  6%  2%\n",
      "\u001b[1;36m[libx264 @ 0x55bc50926580] \u001b[0mi8c dc,h,v,p: 94%  3%  3%  0%\n",
      "\u001b[1;36m[libx264 @ 0x55bc50926580] \u001b[0mWeighted P-Frames: Y:0.0% UV:0.0%\n",
      "\u001b[1;36m[libx264 @ 0x55bc50926580] \u001b[0mref P L0: 77.3%  3.3% 11.1%  8.3%\n",
      "\u001b[1;36m[libx264 @ 0x55bc50926580] \u001b[0mref B L0: 61.3% 32.2%  6.5%\n",
      "\u001b[1;36m[libx264 @ 0x55bc50926580] \u001b[0mref B L1: 90.8%  9.2%\n",
      "\u001b[1;36m[libx264 @ 0x55bc50926580] \u001b[0mkb/s:60.46\n"
     ]
    }
   ],
   "source": [
    "leap = 1\n",
    "to = 600\n",
    "nProc = int(multiprocessing.cpu_count() // 2)\n",
    "with Pool(nProc) as p:\n",
    "    results = [p.apply_async(plot_qv_top, (t, )) for t in range(0, to, leap)]\n",
    "    final = [result.get() for result in results]\n",
    "!cd \"0516/qv_top\" && ffmpeg -r 20 -i %d.png -pix_fmt yuv420p qv_top.mov -y"
   ]
  },
  {
   "cell_type": "code",
   "execution_count": 31,
   "metadata": {},
   "outputs": [
    {
     "name": "stdout",
     "output_type": "stream",
     "text": [
      "ffmpeg version 4.2.2 Copyright (c) 2000-2019 the FFmpeg developers\n",
      "  built with gcc 7.3.0 (crosstool-NG 1.23.0.449-a04d0)\n",
      "  configuration: --prefix=/tmp/build/80754af9/ffmpeg_1587154242452/_h_env_placehold_placehold_placehold_placehold_placehold_placehold_placehold_placehold_placehold_placehold_placehold_placehold_placehold_placehold_placehold_placehold_placehold_placehold_placehold_placehold_placeho --cc=/tmp/build/80754af9/ffmpeg_1587154242452/_build_env/bin/x86_64-conda_cos6-linux-gnu-cc --disable-doc --enable-avresample --enable-gmp --enable-hardcoded-tables --enable-libfreetype --enable-libvpx --enable-pthreads --enable-libopus --enable-postproc --enable-pic --enable-pthreads --enable-shared --enable-static --enable-version3 --enable-zlib --enable-libmp3lame --disable-nonfree --enable-gpl --enable-gnutls --disable-openssl --enable-libopenh264 --enable-libx264\n",
      "  libavutil      56. 31.100 / 56. 31.100\n",
      "  libavcodec     58. 54.100 / 58. 54.100\n",
      "  libavformat    58. 29.100 / 58. 29.100\n",
      "  libavdevice    58.  8.100 / 58.  8.100\n",
      "  libavfilter     7. 57.100 /  7. 57.100\n",
      "  libavresample   4.  0.  0 /  4.  0.  0\n",
      "  libswscale      5.  5.100 /  5.  5.100\n",
      "  libswresample   3.  5.100 /  3.  5.100\n",
      "  libpostproc    55.  5.100 / 55.  5.100\n",
      "Input #0, image2, from '%d.png':\n",
      "  Duration: 00:00:24.00, start: 0.000000, bitrate: N/A\n",
      "    Stream #0:0: Video: png, rgba(pc), 1920x1440 [SAR 11811:11811 DAR 4:3], 25 fps, 25 tbr, 25 tbn, 25 tbc\n",
      "Stream mapping:\n",
      "  Stream #0:0 -> #0:0 (png (native) -> h264 (libx264))\n",
      "Press [q] to stop, [?] for help\n",
      "\u001b[1;36m[libx264 @ 0x55f0f5f0fdc0] \u001b[0musing SAR=1/1\n",
      "\u001b[1;36m[libx264 @ 0x55f0f5f0fdc0] \u001b[0musing cpu capabilities: MMX2 SSE2Fast SSSE3 SSE4.2 AVX FMA3 BMI2 AVX2\n",
      "\u001b[1;36m[libx264 @ 0x55f0f5f0fdc0] \u001b[0mprofile High, level 5.0, 4:2:0, 8-bit\n",
      "\u001b[1;36m[libx264 @ 0x55f0f5f0fdc0] \u001b[0m264 - core 157 - H.264/MPEG-4 AVC codec - Copyleft 2003-2018 - http://www.videolan.org/x264.html - options: cabac=1 ref=3 deblock=1:0:0 analyse=0x3:0x113 me=hex subme=7 psy=1 psy_rd=1.00:0.00 mixed_ref=1 me_range=16 chroma_me=1 trellis=1 8x8dct=1 cqm=0 deadzone=21,11 fast_pskip=1 chroma_qp_offset=-2 threads=45 lookahead_threads=7 sliced_threads=0 nr=0 decimate=1 interlaced=0 bluray_compat=0 constrained_intra=0 bframes=3 b_pyramid=2 b_adapt=1 b_bias=0 direct=1 weightb=1 open_gop=0 weightp=2 keyint=250 keyint_min=20 scenecut=40 intra_refresh=0 rc_lookahead=40 rc=crf mbtree=1 crf=23.0 qcomp=0.60 qpmin=0 qpmax=69 qpstep=4 ip_ratio=1.40 aq=1:1.00\n",
      "Output #0, mov, to 't_sfc.mov':\n",
      "  Metadata:\n",
      "    encoder         : Lavf58.29.100\n",
      "    Stream #0:0: Video: h264 (libx264) (avc1 / 0x31637661), yuv420p, 1920x1440 [SAR 1:1 DAR 4:3], q=-1--1, 20 fps, 10240 tbn, 20 tbc\n",
      "    Metadata:\n",
      "      encoder         : Lavc58.54.100 libx264\n",
      "    Side data:\n",
      "      cpb: bitrate max/min/avg: 0/0/0 buffer size: 0 vbv_delay: -1\n",
      "frame=  600 fps= 95 q=-1.0 Lsize=    6156kB time=00:00:29.85 bitrate=1689.4kbits/s speed=4.71x    \n",
      "video:6148kB audio:0kB subtitle:0kB other streams:0kB global headers:0kB muxing overhead: 0.126695%\n",
      "\u001b[1;36m[libx264 @ 0x55f0f5f0fdc0] \u001b[0mframe I:3     Avg QP:17.51  size: 51146\n",
      "\u001b[1;36m[libx264 @ 0x55f0f5f0fdc0] \u001b[0mframe P:154   Avg QP:23.35  size: 14036\n",
      "\u001b[1;36m[libx264 @ 0x55f0f5f0fdc0] \u001b[0mframe B:443   Avg QP:24.02  size:  8984\n",
      "\u001b[1;36m[libx264 @ 0x55f0f5f0fdc0] \u001b[0mconsecutive B-frames:  0.5%  0.3%  8.5% 90.7%\n",
      "\u001b[1;36m[libx264 @ 0x55f0f5f0fdc0] \u001b[0mmb I  I16..4: 29.3% 58.5% 12.2%\n",
      "\u001b[1;36m[libx264 @ 0x55f0f5f0fdc0] \u001b[0mmb P  I16..4:  1.6% 15.0%  2.3%  P16..4:  7.5%  4.6%  1.0%  0.0%  0.0%    skip:68.0%\n",
      "\u001b[1;36m[libx264 @ 0x55f0f5f0fdc0] \u001b[0mmb B  I16..4:  0.7%  2.5%  0.5%  B16..8: 18.1%  5.5%  0.3%  direct: 0.3%  skip:72.1%  L0:53.1% L1:46.7% BI: 0.2%\n",
      "\u001b[1;36m[libx264 @ 0x55f0f5f0fdc0] \u001b[0m8x8 transform intra:74.4% inter:51.1%\n",
      "\u001b[1;36m[libx264 @ 0x55f0f5f0fdc0] \u001b[0mcoded y,uvDC,uvAC intra: 7.9% 28.3% 25.7% inter: 1.4% 2.1% 1.4%\n",
      "\u001b[1;36m[libx264 @ 0x55f0f5f0fdc0] \u001b[0mi16 v,h,dc,p: 53% 42%  5%  0%\n",
      "\u001b[1;36m[libx264 @ 0x55f0f5f0fdc0] \u001b[0mi8 v,h,dc,ddl,ddr,vr,hd,vl,hu: 18% 13% 63%  1%  1%  1%  1%  1%  1%\n",
      "\u001b[1;36m[libx264 @ 0x55f0f5f0fdc0] \u001b[0mi4 v,h,dc,ddl,ddr,vr,hd,vl,hu: 24% 23% 38%  3%  3%  3%  4%  2%  2%\n",
      "\u001b[1;36m[libx264 @ 0x55f0f5f0fdc0] \u001b[0mi8c dc,h,v,p: 64% 19% 14%  2%\n",
      "\u001b[1;36m[libx264 @ 0x55f0f5f0fdc0] \u001b[0mWeighted P-Frames: Y:0.0% UV:0.0%\n",
      "\u001b[1;36m[libx264 @ 0x55f0f5f0fdc0] \u001b[0mref P L0: 47.4%  0.7% 29.1% 22.9%\n",
      "\u001b[1;36m[libx264 @ 0x55f0f5f0fdc0] \u001b[0mref B L0: 78.3% 15.2%  6.5%\n",
      "\u001b[1;36m[libx264 @ 0x55f0f5f0fdc0] \u001b[0mref B L1: 93.6%  6.4%\n",
      "\u001b[1;36m[libx264 @ 0x55f0f5f0fdc0] \u001b[0mkb/s:1678.61\n"
     ]
    }
   ],
   "source": [
    "leap = 1\n",
    "to = 600\n",
    "nProc = int(multiprocessing.cpu_count() // 2)\n",
    "with Pool(nProc) as p:\n",
    "    results = [p.apply_async(plot_t_sfc, (t, )) for t in range(0, to, leap)]\n",
    "    final = [result.get() for result in results]\n",
    "!cd \"0516/T_sfc\" && ffmpeg -r 20 -i %d.png -pix_fmt yuv420p t_sfc.mov -y"
   ]
  }
 ],
 "metadata": {
  "kernelspec": {
   "display_name": "Python 3 (ipykernel)",
   "language": "python",
   "name": "python3"
  },
  "language_info": {
   "codemirror_mode": {
    "name": "ipython",
    "version": 3
   },
   "file_extension": ".py",
   "mimetype": "text/x-python",
   "name": "python",
   "nbconvert_exporter": "python",
   "pygments_lexer": "ipython3",
   "version": "3.9.13"
  }
 },
 "nbformat": 4,
 "nbformat_minor": 4
}
